<svg xmlns="http://www.w3.org/2000/svg" viewBox="0 0 430.86 94.36"><defs><style>.cls-1{fill:#ffff15;}</style></defs><g id="圖層_2" data-name="圖層 2"><g id="banner"><path class="cls-1" d="M124.28,74.76a19.63,19.63,0,0,1,19.6-19.6h19v5.31h-19a14.31,14.31,0,0,0-14.29,14.29,14.31,14.31,0,0,0,14.29,14.3h19v5.3h-19a19.61,19.61,0,0,1-19.6-19.6Z"/><path class="cls-1" d="M191.12,55.16a19.58,19.58,0,0,1,19.6,19.56V94.36h-5.3V74.72a14.32,14.32,0,0,0-14.3-14.29,13.56,13.56,0,0,0-8.64,2.93,14.65,14.65,0,0,0-5.08,7.5v23.5h-5.31V31.71h5.31V60.82A18.78,18.78,0,0,1,191.12,55.16Z"/><path class="cls-1" d="M225.21,61.35a18.85,18.85,0,0,1,14.29-6.19v5.27a14.31,14.31,0,0,0-14.29,14.29V94.36H219.9V55.16h5.31Z"/><path class="cls-1" d="M268.28,55.21a19.78,19.78,0,0,1,13.57,6,19.56,19.56,0,0,1,0,27.11,19.63,19.63,0,0,1-13.57,6v0h-.18a.3.3,0,0,1-.13,0,.12.12,0,0,1-.09,0h-.17v0a19.63,19.63,0,0,1-13.57-6,19.56,19.56,0,0,1,0-27.11,19.78,19.78,0,0,1,13.57-6v-.05a.37.37,0,0,1,.17.05h.22a.41.41,0,0,1,.18-.05ZM268,89.06a14.4,14.4,0,0,0,10-4.37,14.25,14.25,0,0,0,0-19.86,13.59,13.59,0,0,0-20,0,14.25,14.25,0,0,0,0,19.86A14.36,14.36,0,0,0,268,89.06Z"/><path class="cls-1" d="M315.52,55.16a19.6,19.6,0,0,1,19.6,19.56V94.36h-5.31V74.72a14.32,14.32,0,0,0-14.29-14.29,13.52,13.52,0,0,0-8.64,2.93,14.73,14.73,0,0,0-5.09,7.5v23.5h-5.3V55.25h5.3v5.57A18.8,18.8,0,0,1,315.52,55.16Z"/><path class="cls-1" d="M377.62,78.66V55.16h5.3v39.2h-5.3V88.7A19.55,19.55,0,0,1,344.3,74.81V55.16h5.26V74.81a14.29,14.29,0,0,0,22.95,11.37A14.49,14.49,0,0,0,377.62,78.66Z"/><path class="cls-1" d="M416.53,65.6A14.32,14.32,0,0,1,430.86,80a14.32,14.32,0,0,1-14.33,14.38H392.28v-5.3h24.25a9.08,9.08,0,0,0,0-18.16v0H399.91a7.48,7.48,0,0,1-5.52-2.3,7.88,7.88,0,0,1,0-11.09,7.45,7.45,0,0,1,5.52-2.31H425.6v5.31H399.91A2.54,2.54,0,0,0,397.37,63a2.48,2.48,0,0,0,.74,1.8,2.45,2.45,0,0,0,1.8.74h16.62Z"/><path class="cls-1" d="M98.3,94.18V51.6H110V94.18Zm5.75-66.67-7.86,7.85,7.86,7.86,7.86-7.86Z"/><path class="cls-1" d="M84.8,38a123.35,123.35,0,0,0-17.63,1.93C64.11,31.06,61.32,23.66,59,17.88A84.63,84.63,0,0,0,53.72,6.94c-2.14-3.69-4.28-6.25-8-6.82A8,8,0,0,0,38.93,2C37,3.53,32.31,7.79,8,72.72,5.47,79.52,3,86,1.53,90,.58,92.29.12,93.76,0,94.09c0,0,0,.08,0,.09L12.26,94a3.76,3.76,0,0,0,.42-.92C22,72.26,38.21,58.7,58,49l.75,2.14C66,72.87,72,94,72,94.32l12.06-.14c-.19-.29-6.61-23.16-13.81-45-.55-1.67-1.09-3.29-1.62-4.88,5.25-2.12,10.69-4,16.28-5.82C85.17,38.36,85.05,38,84.8,38ZM27.28,57.1c6.83-17.24,15.38-39.69,17.29-43.62,2.34,4.83,5.84,13.35,11.1,28.84l.13.37A88.89,88.89,0,0,0,27.28,57.1Z"/></g></g></svg>